# xmcd
#
# Track frame offsets: 
#        150
#        17953
#        29209
#        42878
#        56324
#        68309
#        84848
#        96880
#        109264
#        119145
#
# Disc length: 1724 seconds
#
# Revision: 0
# Processed by: cddbd v1.5.2PL0 Copyright (c) Steve Scherf et al.
# Submitted via: ExactAudioCopy v0.95b4
#
DISCID=8006ba0a
DTITLE=John Lee Hooker - John Lee Hooker (Disk 1)
DYEAR=2011
DGENRE=Blues
TTITLE0=House Rent Boogie
TTITLE1=Boom Boom
TTITLE2=Time Is Marching
TTITLE3=Trouble Blue
TTITLE4=Everybody's Rockin'
TTITLE5=Mama You Got A Daughter
TTITLE6=I'm Mad Again
TTITLE7=Crawlin Black Spider
TTITLE8=Run On
TTITLE9=Maudie
EXTD=
EXTT0=
EXTT1=
EXTT2=
EXTT3=
EXTT4=
EXTT5=
EXTT6=
EXTT7=
EXTT8=
EXTT9=
PLAYORDER=
